<?xml version="1.0" encoding="utf-8"?>
<!-- Generator: Adobe Illustrator 22.0.1, SVG Export Plug-In . SVG Version: 6.00 Build 0)  -->
<svg version="1.1" id="Layer_1" xmlns="http://www.w3.org/2000/svg" xmlns:xlink="http://www.w3.org/1999/xlink" x="0px" y="0px"
	 viewBox="0 0 28.6 27.5" style="enable-background:new 0 0 28.6 27.5;" xml:space="preserve">
<g>
	<path d="M13.9,18.5L13.9,18.5c-0.2,0-0.3,0-0.4,0.1l-2.1,2.1c-0.4,0.4-0.9,0.7-1.5,0.8c-0.9,0.2-1.8-0.1-2.5-0.8
		c-0.5-0.5-0.8-1.2-0.8-1.9s0.3-1.4,0.8-1.9l3.6-3.6c0.7-0.7,1.6-1,2.6-0.7c0.3,0.1,0.6,0.2,0.8,0.3c0.3,0.2,0.6,0.5,0.8,0.8
		c0.2,0.3,0.5,0.3,0.7,0.1c0,0,0,0,0,0c0.2-0.2,0.3-0.5,0.1-0.7c-0.3-0.4-0.7-0.8-1.1-1.1c-0.3-0.2-0.6-0.3-1-0.4
		c-1.3-0.3-2.6,0.1-3.5,1l-3.8,3.8c-1.4,1.4-1.4,3.8,0,5.2c0.7,0.7,1.6,1.1,2.6,1.1s1.9-0.4,2.6-1.1l2.3-2.3
		C14.4,19,14.2,18.5,13.9,18.5z"/>
	<path d="M17,15.6c-0.2-0.2-0.4-0.2-0.6-0.1c-0.6,0.4-1.3,0.5-2.1,0.3c-0.3-0.1-0.6-0.2-0.8-0.4c-0.3-0.2-0.5-0.4-0.7-0.7
		c-0.2-0.3-0.5-0.3-0.7-0.1c0,0,0,0-0.1,0c-0.2,0.2-0.2,0.5-0.1,0.7c0.1,0.2,0.3,0.4,0.5,0.6c0.7,0.7,1.6,1.1,2.6,1.1
		c0.7,0,1.4-0.2,2-0.6C17.1,16.2,17.1,15.9,17,15.6L17,15.6z"/>
	<path d="M19,9.7c-0.1,0.3,0.1,0.5,0.4,0.6l0.1,0c0.3,0.1,0.6-0.1,0.6-0.4c0.5-2.2,0.1-3.8-1.2-4.7c-0.1-0.1-0.4-0.3-0.5-0.3
		c-0.5-0.3-1.1-0.5-1.7-0.5c-1.3,0-2.6,0.4-3.5,1.9l-1.5,2.8c-0.2,0.4,0.1,0.8,0.5,0.7c0,0,0.1,0,0.1,0c0.2,0,0.3-0.1,0.4-0.3L14,7
		c0.5-0.9,1.4-1.4,2.4-1.4c0.5,0,0.9,0.1,1.3,0.3C18.7,6.5,19.5,7.4,19,9.7z"/>
	<path d="M21,12.4l1.2-0.1c0.3,0,0.5-0.2,0.5-0.5c0-0.3-0.2-0.5-0.5-0.5L21,11.4c-0.3,0-0.5,0.2-0.5,0.5
		C20.6,12.2,20.8,12.4,21,12.4z"/>
	<path d="M23.3,14.8l-2.6-1c-0.3-0.1-0.5,0-0.6,0.3c-0.1,0.3,0,0.5,0.3,0.6l2.6,1c0.3,0.1,0.5,0,0.6-0.3
		C23.6,15.1,23.5,14.9,23.3,14.8z"/>
	<path d="M19.9,15.6c-0.2-0.2-0.5-0.2-0.7,0c-0.2,0.2-0.2,0.5,0,0.7l1.1,1.2c0.2,0.2,0.5,0.2,0.7,0c0.2-0.2,0.2-0.5,0-0.7L19.9,15.6
		z"/>
</g>
</svg>
