<?xml version="1.0" encoding="utf-8"?>
<!-- Generator: Adobe Illustrator 22.1.0, SVG Export Plug-In . SVG Version: 6.00 Build 0)  -->
<svg version="1.1" id="Layer_1" xmlns="http://www.w3.org/2000/svg" xmlns:xlink="http://www.w3.org/1999/xlink" x="0px" y="0px"
	 viewBox="0 0 327.3 78" style="enable-background:new 0 0 327.3 78;" xml:space="preserve">
<style type="text/css">
	.st0{clip-path:url(#SVGID_2_);}
	.st1{fill:#ED1C24;}
</style>
<g>
	<g>
		<defs>
			<rect id="SVGID_1_" y="0" width="327.3" height="78"/>
		</defs>
		<clipPath id="SVGID_2_">
			<use xlink:href="#SVGID_1_"  style="overflow:visible;"/>
		</clipPath>
		<path class="st0" d="M65.2,26.2L63.7,1.1c-0.2-0.6-1.2-0.6-1.2,0c-0.1,5.4-9.7,0.9-13,0.1C19.9-5.6,0,18.1,0,37.8l0,0
			c0,25.5,16.8,39.4,38.5,39.4c17.3,0,26-11,28.8-23c0.4-1.5-1.3-1.2-1.7,0C60.4,70.8,47.4,75,41,74.9c-14-0.2-26.9-11.5-27.4-37.2
			C13.1,5.1,50.1-16.3,64,25.8C64.3,26.7,65,26.9,65.2,26.2L65.2,26.2z"/>
		<path class="st0" d="M84.1,74.9C90.4,75.7,96,70,96,64.4l0-13.6C69,60.6,77.4,74.5,84.1,74.9L84.1,74.9z M76.8,30.2
			c7.6-3.2,28.3-2.2,28.3,7.3l0,29c0,7.9,7.8,10.6,10,5.3c0.7-0.7,1.9-0.2,1.3,1c-1.4,5.6-15.3,6.5-20.1-1
			C69.8,91.1,52.8,53,84.6,52.4c9.9-1.5,11.1-7.2,11.1-11.2c0-9.9-5.2-10.8-8.3-10.8c-3.3,0-6,1-7.8,6.1
			C76.7,46.7,61.4,37.5,76.8,30.2L76.8,30.2z"/>
		<path class="st0" d="M131,29.3L118,31c-0.8,0.2-0.8,0.6,0.7,1c2.8,0.1,4.6,2,4.6,6.1l0,30.2c0,3.6-5.1,6.8-6.1,7.2
			c-2.4,1,1.2,0.8,1.2,0.8l21.2,0c0.7,0,2.9,0.2,0.1-1.1c-3.2-1.2-6.7-3.8-6.7-6.9c0-3.1,0-22.7,0-22.7c0-9.5,6.2-14.7,12.4-14.7
			c6.4,0,11.7,1.4,11.7,14.7l0,22.8c0,3.3-4.3,6.3-6.6,7.1c-1.5,0.4-2.1,0.9-0.8,0.9l22.6,0c1.2,0.1,1.7-0.3,0.6-0.6
			c-5.4-2.1-6.1-6.1-6.1-7.4l0-26.5c0-15.2-14.5-13.2-19.7-13.2c-6.4,0.1-13.2,4.1-14,5.9C132.9,29.7,132.3,29.2,131,29.3L131,29.3z
			"/>
		<path class="st0" d="M246.6,75c8,0,13.3-3.1,13.4-21.8c0-17.8-5.3-22.1-13.3-22.1c-8,0-14.5,10.3-14.5,22.3
			C232.2,65.4,238.7,75,246.6,75L246.6,75z M259.7,72.8c-2.2,3.8-7.6,4.7-14.4,4.7c-12.7,0-23.2-9.9-23.2-23.3
			c0-11.9,6.8-25.4,23.9-25.4c15.4,0,15.3,10.4,15.3,1.7l0-15.2c0-7.8-3.1-10.1-5.5-10.8c-3.5-1.2-8-1.4-0.8-1.4l13.4-0.3
			c0.8,0,0.9,0.2,0.9,1.4l-0.1,59.2c0,4.1,1.5,10.4,8.1,12.3c0.6,0.1,1.3,0.5,0.6,0.7L263.5,78c-2.1,0.2-3-0.8-3.9-4.9"/>
		<path class="st0" d="M190,74.9c6.3,0.8,11.9-4.9,12-10.5l0-13.6C175,60.7,183.4,74.5,190,74.9L190,74.9z M183.3,30.3
			c7.6-3.2,28.3-2.2,28.3,7.3l0,29c0,7.9,7.8,10.6,10,5.3c0.7-0.7,1.9-0.2,1.3,1c-1.4,5.6-15.3,6.5-20.1-1
			c-26.6,19.3-43.5-18.8-11.7-19.4c9.9-1.5,11.1-7.2,11.1-11.2c0-9.9-5.2-10.8-8.3-10.8c-3.3,0-6,1-7.8,6.1
			C183.2,46.7,167.8,37.6,183.3,30.3L183.3,30.3z"/>
		<path class="st0" d="M294.3,75.2c6.3,0.8,11.9-4.9,11.9-10.5l0-13.6C279.3,60.9,287.7,74.7,294.3,75.2L294.3,75.2z M287.5,30.5
			c7.6-3.2,28.3-2.2,28.3,7.3l0,29c0,7.9,7.8,10.6,10,5.3c0.7-0.7,1.9-0.2,1.3,1c-1.4,5.6-15.3,6.5-20.1-1
			c-26.6,19.3-43.5-18.8-11.7-19.4c9.9-1.5,11-7.2,11-11.2c0-9.9-5.2-10.8-8.3-10.8c-3.3,0-6,1-7.8,6.1
			C287.4,46.9,272.1,37.8,287.5,30.5L287.5,30.5z"/>
	</g>
	<polygon class="st1" points="275.8,25.3 275.8,2.8 286.9,2.8 286.8,25.3 275.8,25.3 	"/>
	<polygon class="st1" points="311.3,25.3 311.4,2.9 322.4,2.9 322.4,25.4 311.3,25.3 	"/>
	<path class="st1" d="M297.6,7.5l1.6-3.2l1.6,3.1c0.2,0.3,0.3,0.3,0.7,0.1l1.3-0.7l-0.9,4.3c-0.2,0.9,0.3,1.1,0.8,0.5l1.9-2l0.5,1.2
		c0.2,0.4,0.4,0.3,0.8,0.2l2-0.4l-0.7,2.5l0,0.1c-0.1,0.3-0.2,0.6,0.1,0.8l0.7,0.4l-4.1,3.5c-0.4,0.4-0.3,0.6-0.1,1l0.4,1.2
		l-3.8-0.7c-0.5-0.1-0.8-0.1-0.8,0.3l0.2,4.4h-1.1l0.2-4.4c0-0.4-0.3-0.4-1.1-0.3l-3.5,0.7l0.5-1.2c0.2-0.4,0.2-0.7-0.2-1l-4.2-3.4
		l0.8-0.5c0.2-0.2,0.2-0.4,0.1-0.7l-0.8-2.5l2,0.4c0.6,0.1,0.7,0,0.9-0.3l0.6-1.1l2,2.2c0.3,0.4,0.8,0.1,0.7-0.5l-0.9-4.7l1.5,0.9
		C297.2,7.7,297.5,7.7,297.6,7.5"/>
</g>
</svg>
