<?xml version="1.0" encoding="utf-8"?>
<!-- Generator: Adobe Illustrator 22.1.0, SVG Export Plug-In . SVG Version: 6.00 Build 0)  -->
<svg version="1.1" id="Layer_1" xmlns="http://www.w3.org/2000/svg" xmlns:xlink="http://www.w3.org/1999/xlink" x="0px" y="0px"
	 viewBox="0 0 22.6 22.6" style="enable-background:new 0 0 22.6 22.6;" xml:space="preserve">
<style type="text/css">
	.st0{fill:#FFFFFF;}
	.st1{stroke:#000000;stroke-width:0.75;stroke-linecap:square;stroke-linejoin:bevel;stroke-miterlimit:10;}
</style>
<path class="st0" d="M11.3,22.5c-6.2,0-11.2-5-11.2-11.2c0-6.2,5-11.2,11.2-11.2s11.2,5,11.2,11.2c0,0,0,0,0,0
	C22.5,17.5,17.5,22.5,11.3,22.5z"/>
<title>cancel</title>
<circle class="st0" cx="11.3" cy="11.3" r="10.8"/>
<path class="st1" d="M15.4,15.8c-0.1,0-0.2,0-0.3-0.1L6.9,7.5c-0.2-0.2-0.2-0.4,0-0.6c0,0,0,0,0,0c0.2-0.2,0.4-0.2,0.6,0l8.2,8.2
	c0.2,0.2,0.2,0.4,0,0.6c0,0,0,0,0,0C15.6,15.8,15.5,15.8,15.4,15.8z"/>
<path class="st1" d="M7.2,15.8c-0.1,0-0.2,0-0.3-0.1c-0.2-0.2-0.2-0.4,0-0.6c0,0,0,0,0,0l8.2-8.2c0.2-0.2,0.4-0.2,0.6,0
	c0.2,0.2,0.2,0.4,0,0.6c0,0,0,0,0,0l-8.2,8.2C7.4,15.8,7.3,15.8,7.2,15.8z"/>
</svg>
