<svg id="Layer_1" data-name="Layer 1" xmlns="http://www.w3.org/2000/svg" viewBox="0 0 22.63 22.63"><defs><style>.cls-1{fill:#fff;}.cls-2{stroke:#000;stroke-miterlimit:10;stroke-width:0.3px;}</style></defs><title>cancel</title><circle class="cls-1" cx="11.31" cy="11.31" r="10.81"/><path d="M16.11,16.64a.42.42,0,0,1-.3-.12L7.6,8.31a.41.41,0,0,1,0-.58.42.42,0,0,1,.59,0l8.21,8.21a.41.41,0,0,1,0,.58A.42.42,0,0,1,16.11,16.64Z" transform="translate(-0.69 -0.81)"/><path d="M7.89,16.64a.42.42,0,0,1-.29-.12.41.41,0,0,1,0-.58l8.21-8.21a.42.42,0,0,1,.59,0,.41.41,0,0,1,0,.58L8.19,16.52A.42.42,0,0,1,7.89,16.64Z" transform="translate(-0.69 -0.81)"/><path class="cls-2" d="M12,23.29A11.17,11.17,0,1,1,23.16,12.12,11.17,11.17,0,0,1,12,23.29Zm0-21.5A10.34,10.34,0,1,0,22.34,12.12,10.35,10.35,0,0,0,12,1.79Z" transform="translate(-0.69 -0.81)"/></svg>