<svg xmlns="http://www.w3.org/2000/svg" viewBox="0 0 22.34 22.34"><defs><style>.cls-1,.cls-3{fill:#fff;}.cls-2{fill:#222;}.cls-3{stroke:#fff;stroke-linecap:square;stroke-linejoin:bevel;stroke-width:0.75px;}</style></defs><title>mobileCancel</title><g id="Layer_2" data-name="Layer 2"><g id="Layer_1-2" data-name="Layer 1"><path class="cls-1" d="M11.18,22.34A11.17,11.17,0,1,1,22.34,11.16h0A11.17,11.17,0,0,1,11.18,22.34Z"/><circle class="cls-2" cx="11.18" cy="11.17" r="10.81"/><path class="cls-3" d="M15.29,15.69a.42.42,0,0,1-.3-.12L6.78,7.36a.41.41,0,0,1,0-.58h0a.42.42,0,0,1,.59,0L15.58,15a.41.41,0,0,1,0,.58h0A.4.4,0,0,1,15.29,15.69Z"/><path class="cls-3" d="M7.07,15.69a.4.4,0,0,1-.29-.12.41.41,0,0,1,0-.58h0L15,6.78a.42.42,0,0,1,.59,0,.41.41,0,0,1,0,.58h0L7.37,15.57A.42.42,0,0,1,7.07,15.69Z"/></g></g></svg>