<svg xmlns="http://www.w3.org/2000/svg" viewBox="0 0 22.34 22.34"><defs><style>.cls-3{fill:#fff;stroke:#fff;stroke-linecap:square;stroke-linejoin:bevel;stroke-width:.75px}</style></defs><g id="Layer_2" data-name="Layer 2"><g id="Layer_1-2" data-name="Layer 1"><path d="M11.18 22.34a11.17 11.17 0 1 1 11.16-11.18 11.17 11.17 0 0 1-11.16 11.18z" fill="#fff"/><circle cx="11.18" cy="11.17" r="10.81" fill="#222"/><path class="cls-3" d="M15.29 15.69a.42.42 0 0 1-.3-.12L6.78 7.36a.41.41 0 0 1 0-.58.42.42 0 0 1 .59 0L15.58 15a.41.41 0 0 1 0 .58.4.4 0 0 1-.29.11z"/><path class="cls-3" d="M7.07 15.69a.4.4 0 0 1-.29-.12.41.41 0 0 1 0-.58L15 6.78a.42.42 0 0 1 .59 0 .41.41 0 0 1 0 .58l-8.22 8.21a.42.42 0 0 1-.3.12z"/></g></g></svg>