<svg id="Layer_1" xmlns="http://www.w3.org/2000/svg" xmlns:xlink="http://www.w3.org/1999/xlink" viewBox="0 0 327.3 78"><style>.st0{clip-path:url(#SVGID_2_)}.st1{fill:#ed1c24}</style><defs><path id="SVGID_1_" d="M0 0h327.3v78H0z"/></defs><clipPath id="SVGID_2_"><use xlink:href="#SVGID_1_" overflow="visible"/></clipPath><path class="st0" d="M65.2 26.2L63.7 1.1c-.2-.6-1.2-.6-1.2 0-.1 5.4-9.7.9-13 .1C19.9-5.6 0 18.1 0 37.8c0 25.5 16.8 39.4 38.5 39.4 17.3 0 26-11 28.8-23 .4-1.5-1.3-1.2-1.7 0C60.4 70.8 47.4 75 41 74.9c-14-.2-26.9-11.5-27.4-37.2-.5-32.6 36.5-54 50.4-11.9.3.9 1 1.1 1.2.4z"/><path class="st0" d="M84.1 74.9C90.4 75.7 96 70 96 64.4V50.8c-27 9.8-18.6 23.7-11.9 24.1zm-7.3-44.7c7.6-3.2 28.3-2.2 28.3 7.3v29c0 7.9 7.8 10.6 10 5.3.7-.7 1.9-.2 1.3 1-1.4 5.6-15.3 6.5-20.1-1C69.8 91.1 52.8 53 84.6 52.4c9.9-1.5 11.1-7.2 11.1-11.2 0-9.9-5.2-10.8-8.3-10.8-3.3 0-6 1-7.8 6.1-2.9 10.2-18.2 1-2.8-6.3z"/><path class="st0" d="M131 29.3L118 31c-.8.2-.8.6.7 1 2.8.1 4.6 2 4.6 6.1v30.2c0 3.6-5.1 6.8-6.1 7.2-2.4 1 1.2.8 1.2.8h21.2c.7 0 2.9.2.1-1.1-3.2-1.2-6.7-3.8-6.7-6.9V45.6c0-9.5 6.2-14.7 12.4-14.7 6.4 0 11.7 1.4 11.7 14.7v22.8c0 3.3-4.3 6.3-6.6 7.1-1.5.4-2.1.9-.8.9h22.6c1.2.1 1.7-.3.6-.6-5.4-2.1-6.1-6.1-6.1-7.4V41.9c0-15.2-14.5-13.2-19.7-13.2-6.4.1-13.2 4.1-14 5.9-.2-4.9-.8-5.4-2.1-5.3zM246.6 75c8 0 13.3-3.1 13.4-21.8 0-17.8-5.3-22.1-13.3-22.1s-14.5 10.3-14.5 22.3S238.7 75 246.6 75zm13.1-2.2c-2.2 3.8-7.6 4.7-14.4 4.7-12.7 0-23.2-9.9-23.2-23.3 0-11.9 6.8-25.4 23.9-25.4 15.4 0 15.3 10.4 15.3 1.7V15.3c0-7.8-3.1-10.1-5.5-10.8-3.5-1.2-8-1.4-.8-1.4l13.4-.3c.8 0 .9.2.9 1.4l-.1 59.2c0 4.1 1.5 10.4 8.1 12.3.6.1 1.3.5.6.7L263.5 78c-2.1.2-3-.8-3.9-4.9"/><path class="st0" d="M190 74.9c6.3.8 11.9-4.9 12-10.5V50.8c-27 9.9-18.6 23.7-12 24.1zm-6.7-44.6c7.6-3.2 28.3-2.2 28.3 7.3v29c0 7.9 7.8 10.6 10 5.3.7-.7 1.9-.2 1.3 1-1.4 5.6-15.3 6.5-20.1-1-26.6 19.3-43.5-18.8-11.7-19.4 9.9-1.5 11.1-7.2 11.1-11.2 0-9.9-5.2-10.8-8.3-10.8-3.3 0-6 1-7.8 6.1-2.9 10.1-18.3 1-2.8-6.3zM294.3 75.2c6.3.8 11.9-4.9 11.9-10.5V51.1c-26.9 9.8-18.5 23.6-11.9 24.1zm-6.8-44.7c7.6-3.2 28.3-2.2 28.3 7.3v29c0 7.9 7.8 10.6 10 5.3.7-.7 1.9-.2 1.3 1-1.4 5.6-15.3 6.5-20.1-1-26.6 19.3-43.5-18.8-11.7-19.4 9.9-1.5 11-7.2 11-11.2 0-9.9-5.2-10.8-8.3-10.8-3.3 0-6 1-7.8 6.1-2.8 10.1-18.1 1-2.7-6.3z"/><path class="st1" d="M275.8 25.3V2.8h11.1l-.1 22.5h-11zM311.3 25.3l.1-22.4h11v22.5l-11.1-.1zM297.6 7.5l1.6-3.2 1.6 3.1c.2.3.3.3.7.1l1.3-.7-.9 4.3c-.2.9.3 1.1.8.5l1.9-2 .5 1.2c.2.4.4.3.8.2l2-.4-.7 2.5v.1c-.1.3-.2.6.1.8l.7.4-4.1 3.5c-.4.4-.3.6-.1 1l.4 1.2-3.8-.7c-.5-.1-.8-.1-.8.3l.2 4.4h-1.1l.2-4.4c0-.4-.3-.4-1.1-.3l-3.5.7.5-1.2c.2-.4.2-.7-.2-1l-4.2-3.4.8-.5c.2-.2.2-.4.1-.7l-.8-2.5 2 .4c.6.1.7 0 .9-.3l.6-1.1 2 2.2c.3.4.8.1.7-.5l-.9-4.7 1.5.9c-.1 0 .2 0 .3-.2"/></svg>