<svg id="Layer_1" xmlns="http://www.w3.org/2000/svg" viewBox="0 0 22.6 22.6"><style>.st0{fill:#fff}.st1{stroke:#000;stroke-width:.75;stroke-linecap:square;stroke-linejoin:bevel;stroke-miterlimit:10}</style><path class="st0" d="M11.3 22.5C5.1 22.5.1 17.5.1 11.3.1 5.1 5.1.1 11.3.1s11.2 5 11.2 11.2c0 6.2-5 11.2-11.2 11.2z"/><circle class="st0" cx="11.3" cy="11.3" r="10.8"/><path class="st1" d="M15.4 15.8c-.1 0-.2 0-.3-.1L6.9 7.5c-.2-.2-.2-.4 0-.6.2-.2.4-.2.6 0l8.2 8.2c.2.2.2.4 0 .6-.1.1-.2.1-.3.1z"/><path class="st1" d="M7.2 15.8c-.1 0-.2 0-.3-.1-.2-.2-.2-.4 0-.6l8.2-8.2c.2-.2.4-.2.6 0 .2.2.2.4 0 .6l-8.2 8.2c-.1.1-.2.1-.3.1z"/></svg>