<svg xmlns="http://www.w3.org/2000/svg" viewBox="0 0 243.34 75.58"><path d="M28.67 31.6H25.2L24.4 28c-2.9 3.3-5.53 4.37-9.3 4.37C5.84 32.34.3 25 .3 16.17S5.84 0 15.1 0c6.75 0 12.4 3.6 13.23 10.55H23c-.52-4.06-4.06-6.14-8-6.14-6.62 0-9.38 5.84-9.38 11.76S8.4 27.93 15 27.93c5.53.08 8.56-3.24 8.65-8.48h-8.13v-4.1h13.15zm15.43-3.3c-4.4 0-6.36-4-6.36-7.9s1.95-7.87 6.36-7.87 6.36 4 6.36 7.87-1.95 7.9-6.36 7.9zm0 3.9c7.18 0 11.3-4.93 11.3-11.8S51.28 8.65 44.1 8.65 32.82 13.58 32.82 20.4s4.1 11.8 11.28 11.8zM57.3 9.25h5.36l5.66 17.17h.1l5.45-17.17h5.1l-8 22.35h-5.53zm28.5 9.2a5.84 5.84 0 0 1 5.88-5.92c3.33 0 5.45 2.8 5.62 5.92zm16.43 3.25C103 15 98.7 8.65 91.66 8.65c-6.66 0-10.8 5.45-10.8 11.8 0 6.87 3.93 11.76 10.94 11.76 4.9 0 9-2.72 10.12-7.6h-4.67c-.86 2.47-2.6 3.72-5.45 3.72-4.1 0-6-3.1-6-6.62zM106 9.25h4.63v4.32h.1a7.22 7.22 0 0 1 6.53-4.93 11.73 11.73 0 0 1 1.86.13v4.76a17.6 17.6 0 0 0-2.12-.22c-3.37 0-6.05 2.72-6.05 7.65V31.6H106V9.25zm15.2 0h4.67v3.3l.1.1a8 8 0 0 1 7-4c4.84 0 7.9 2.6 7.9 7.6V31.6h-4.93V17.55c-.1-3.5-1.47-5-4.37-5-3.3 0-5.4 2.6-5.4 5.88V31.6h-4.93V9.25zm24.8 0h4.67v3.1h.13a7.47 7.47 0 0 1 6.87-3.72c2.72 0 5.28 1.17 6.27 3.72a8.07 8.07 0 0 1 7-3.72c4.7 0 7.48 2.08 7.48 7.52V31.6h-4.93V18.55c0-3.55-.22-6-4.06-6-3.33 0-4.76 2.2-4.76 6v13.1h-4.93v-14.4c0-3.07-1-4.7-3.93-4.7-2.55 0-4.9 2.08-4.9 5.8V31.6H146V9.25zm41.48 9.2a5.84 5.84 0 0 1 5.88-5.92c3.33 0 5.45 2.8 5.62 5.92zm16.43 3.25c.82-6.7-3.5-13.06-10.55-13.06-6.66 0-10.8 5.45-10.8 11.8 0 6.87 3.93 11.76 10.94 11.76 4.9 0 9-2.72 10.12-7.6h-4.67c-.86 2.47-2.6 3.72-5.45 3.72-4.1 0-6-3.1-6-6.62zm3.76-12.46h4.67v3.3l.1.1a8 8 0 0 1 7-4c4.84 0 7.9 2.6 7.9 7.6V31.6h-4.93V17.55c-.1-3.5-1.47-5-4.37-5-3.3 0-5.4 2.6-5.4 5.88V31.6h-4.93V9.25zm22.57 0H234v-6.7h4.93v6.7h4.45v3.68h-4.45v11.94c0 2 .17 3.07 2.38 3.07a8.25 8.25 0 0 0 2.08-.18v3.8c-1.08.08-2.12.26-3.2.26-5.15 0-6.1-2-6.2-5.7v-13.2h-3.7V9.25zM11.3 71.56c-4.4 0-6.36-4-6.36-7.9s1.95-7.87 6.36-7.87 6.36 4 6.36 7.87-1.95 7.9-6.36 7.9zm0 3.9c7.18 0 11.3-4.93 11.3-11.8S18.46 51.9 11.3 51.9 0 56.8 0 63.65s4.1 11.8 11.3 11.8zM24.47 52.5h3.68v-1.86c0-5.7 3-6.66 6.18-6.66a13.87 13.87 0 0 1 3.46.3v3.85a8.36 8.36 0 0 0-2.29-.26c-1.34 0-2.42.48-2.42 2.33v2.3h4.2v3.68h-4.2v18.68h-4.93V56.17h-3.67zm49.38 1.3c-.9-3.55-3.2-6.14-7.7-6.14-6.62 0-9.38 5.84-9.38 11.76s2.77 11.76 9.38 11.76c4.8 0 7.44-3.6 7.87-8.1h5.28c-.43 7.4-5.66 12.5-13.14 12.5-9.25 0-14.8-7.35-14.8-16.17s5.53-16.17 14.78-16.17c7 0 12.45 3.9 13.1 10.55h-5.4zm23.48 13.53c0 3.1-3.37 4.24-5.53 4.24-1.73 0-4.54-.65-4.54-2.85 0-2.6 1.9-3.37 4-3.72s4.54-.35 6.05-1.34zm4.93-9c0-4.7-4.58-6.5-9-6.5-4.93 0-9.82 1.7-10.16 7.44h4.93c.22-2.42 2.16-3.55 4.93-3.55 2 0 4.63.48 4.63 3 0 2.9-3.16 2.5-6.7 3.16-4.15.48-8.6 1.38-8.6 7 0 4.37 3.63 6.53 7.65 6.53a11.47 11.47 0 0 0 7.74-2.72c.4 2 1.82 2.72 3.8 2.72a12.37 12.37 0 0 0 3.11-.56v-3.37a7.11 7.11 0 0 1-1.21.08c-.9 0-1.17-.48-1.17-1.7zm5.3-5.83h4.67v3.3l.1.1a8 8 0 0 1 7-4c4.84 0 7.9 2.6 7.9 7.6v15.36h-4.93V60.8c-.1-3.5-1.47-5-4.37-5-3.3 0-5.4 2.6-5.4 5.88v13.17h-4.93V52.5zm38.6 14.83c0 3.1-3.37 4.24-5.53 4.24-1.73 0-4.54-.65-4.54-2.85 0-2.6 1.9-3.37 4-3.72s4.54-.35 6.05-1.34zm4.93-9c0-4.7-4.58-6.5-9-6.5-4.93 0-9.82 1.7-10.16 7.44h4.93c.22-2.42 2.16-3.55 4.93-3.55 2 0 4.63.48 4.63 3 0 2.9-3.16 2.5-6.7 3.16-4.15.48-8.6 1.38-8.6 7 0 4.37 3.63 6.53 7.65 6.53a11.47 11.47 0 0 0 7.74-2.72c.4 2 1.82 2.72 3.8 2.72a12.37 12.37 0 0 0 3.11-.56v-3.37a7.11 7.11 0 0 1-1.21.08c-.9 0-1.17-.48-1.17-1.7zm9.17 5.6c0-4 1.64-8.13 6.27-8.13 3.8 0 6.18 2.94 6.18 7.87 0 3.9-1.86 7.9-6.27 7.9s-6.18-3.8-6.18-7.65zM177.5 44h-4.93v11.4h-.1c-1.5-2.46-4.63-3.5-7.44-3.5-4.9 0-9.7 3.55-9.7 11.63 0 6.7 3.42 11.93 10.46 11.93 2.8 0 5.62-1.08 6.92-3.63h.1v3h4.67V44zm19.15 23.32c0 3.1-3.37 4.24-5.53 4.24-1.73 0-4.54-.65-4.54-2.85 0-2.6 1.9-3.37 4-3.72s4.54-.35 6.05-1.34zm4.93-9c0-4.7-4.58-6.5-9-6.5-4.93 0-9.82 1.7-10.16 7.44h4.93c.22-2.42 2.16-3.55 4.93-3.55 2 0 4.63.48 4.63 3 0 2.9-3.16 2.5-6.7 3.16-4.15.48-8.6 1.38-8.6 7 0 4.37 3.63 6.53 7.65 6.53a11.47 11.47 0 0 0 7.75-2.68c.4 2 1.82 2.72 3.8 2.72a12.37 12.37 0 0 0 3.11-.56v-3.4a7.11 7.11 0 0 1-1.21.08c-.9 0-1.17-.48-1.17-1.7z" fill="#fff"/></svg>