<svg xmlns="http://www.w3.org/2000/svg" viewBox="0 0 155.38 75.01"><path d="M0 0h36.84v75H0zm118.54 0h36.84v75h-36.84zM72.58 15.6l5.26-10.7 5.22 10.32c.65 1.1 1.18 1 2.22.48l4.5-2.22-2.92 14.4c-.6 2.83 1 3.66 2.75 1.74L96 22.8l1.7 3.87c.57 1.17 1.43 1 2.57.8l6.6-1.44-2.22 8.35v.18c-.26 1.1-.78 2 .44 2.53l2.35 1.17L93.77 49.8c-1.4 1.43-.9 1.87-.4 3.48l1.26 3.87-12.7-2.3c-1.57-.4-2.66-.4-2.7.87l.52 14.58h-3.82l.52-14.54c0-1.43-1.1-1.4-3.66-.86L61 57.16l1.52-3.87c.52-1.48.66-2.48-.52-3.48L48.1 38.45l2.57-1.57c.74-.57.78-1.17.4-2.44L48.46 26l6.7 1.43c1.87.44 2.4 0 2.87-1l1.87-3.83 6.62 7.4c1.17 1.4 2.83.48 2.3-1.52l-3.18-15.63 4.92 2.83c.78.48 1.6.6 2.1-.3" fill="#fff"/></svg>