<svg xmlns="http://www.w3.org/2000/svg" viewBox="0 0 292.23 75.58"><path d="M28.7 31.6h-3.46l-.82-3.6c-2.9 3.3-5.53 4.37-9.3 4.37C5.87 32.34.34 25 .34 16.17S5.87 0 15.13 0c6.75 0 12.4 3.6 13.23 10.55h-5.28c-.52-4.06-4.06-6.14-8-6.14-6.62 0-9.38 5.84-9.38 11.76s2.77 11.76 9.38 11.76c5.53.1 8.56-3.24 8.65-8.47h-8.17v-4.1H28.7V31.6zm15.44-3.3c-4.4 0-6.36-4-6.36-7.9s1.95-7.87 6.36-7.87 6.36 4 6.36 7.87-1.95 7.9-6.36 7.9zm0 3.9c7.18 0 11.3-4.93 11.3-11.8s-4.1-11.76-11.3-11.76-11.3 4.93-11.3 11.76S37 32.2 44.14 32.2zm35.02-.6h-4.84V28.5h-.1a7.51 7.51 0 0 1-6.36 3.72c-5.84 0-8.34-2.94-8.34-8.78V9.25h4.93V23c0 3.94 1.6 5.36 4.28 5.36 4.1 0 5.5-2.63 5.5-6.1v-13h4.93V31.6zm3-22.36h5.36l5.66 17.17h.1L98.7 9.25h5.1l-8 22.35h-5.53zm28.5 9.2a5.84 5.84 0 0 1 5.88-5.92c3.33 0 5.45 2.8 5.62 5.92zm16.43 3.24c.83-6.7-3.5-13.06-10.55-13.06-6.66 0-10.8 5.45-10.8 11.8 0 6.87 3.93 11.76 10.94 11.76 4.88 0 9-2.72 10.12-7.6h-4.67c-.86 2.47-2.6 3.72-5.45 3.72-4.1 0-6-3.1-6-6.62zm3.76-12.45h4.63v4.32h.08a7.22 7.22 0 0 1 6.53-4.93 11.73 11.73 0 0 1 1.86.13v4.76a17.52 17.52 0 0 0-2.12-.22c-3.37 0-6.05 2.72-6.05 7.65V31.6h-4.93V9.25zm15.17 0h4.67v3.3l.1.1a8 8 0 0 1 7-4c4.85 0 7.9 2.6 7.9 7.6V31.6h-4.93V17.55c-.08-3.5-1.47-5-4.37-5-3.3 0-5.4 2.6-5.4 5.88V31.6H146zm28.7 9.2a5.84 5.84 0 0 1 5.88-5.92c3.33 0 5.45 2.8 5.62 5.92zm16.43 3.24c.86-6.7-3.5-13.05-10.55-13.05-6.66 0-10.8 5.45-10.8 11.8 0 6.87 3.94 11.76 10.94 11.76 4.9 0 9-2.72 10.12-7.6h-4.67c-.86 2.47-2.6 3.72-5.45 3.72-4.1 0-6-3.1-6-6.62zm3.77-12.45h4.67v3.1h.13a7.47 7.47 0 0 1 6.87-3.72c2.73 0 5.28 1.17 6.27 3.72a8.07 8.07 0 0 1 7-3.72c4.7 0 7.48 2.08 7.48 7.52V31.6h-4.93V18.55c0-3.55-.22-6-4.06-6-3.33 0-4.76 2.2-4.76 6v13.1h-4.93v-14.4c0-3.07-1-4.7-3.93-4.7-2.55 0-4.88 2.08-4.88 5.8V31.6h-4.93V9.25zm41.47 9.2a5.84 5.84 0 0 1 5.88-5.92c3.33 0 5.45 2.8 5.62 5.92zm16.43 3.24c.83-6.7-3.5-13.06-10.55-13.06-6.66 0-10.8 5.45-10.8 11.8 0 6.87 3.93 11.76 10.94 11.76 4.88 0 9-2.72 10.12-7.6h-4.67c-.86 2.47-2.6 3.72-5.45 3.72-4.1 0-6-3.1-6-6.62zm3.75-12.45h4.67v3.3l.1.1a8 8 0 0 1 7-4c4.85 0 7.9 2.6 7.9 7.6V31.6h-4.93V17.55c-.08-3.5-1.47-5-4.37-5-3.3 0-5.4 2.6-5.4 5.88V31.6h-4.93zm22.57 0h3.72v-6.7h4.93v6.7h4.45v3.68h-4.45v11.94c0 2 .17 3.07 2.38 3.07a8.42 8.42 0 0 0 2.08-.17v3.8c-1.08.08-2.12.26-3.2.26-5.15 0-6.1-2-6.18-5.7v-13.2h-3.72V9.25zM4.92 63.9c0-4 1.64-8.13 6.27-8.13 3.8 0 6.18 2.94 6.18 7.87 0 3.9-1.86 7.9-6.27 7.9s-6.18-3.8-6.18-7.65zM22.13 44H17.2v11.4h-.1c-1.5-2.46-4.63-3.5-7.43-3.5-4.9 0-9.7 3.54-9.7 11.63 0 6.7 3.42 11.93 10.46 11.93 2.8 0 5.62-1.08 6.92-3.63h.08v3h4.67V44zm25 30.84h-4.84v-3.1h-.1a7.51 7.51 0 0 1-6.36 3.72c-5.84 0-8.34-2.94-8.34-8.78V52.5h4.93v13.7c0 3.94 1.6 5.36 4.28 5.36 4.1 0 5.5-2.63 5.5-6.1v-13h4.93v22.4zM85.86 53.8c-.9-3.55-3.2-6.14-7.7-6.14-6.62 0-9.38 5.84-9.38 11.76s2.77 11.76 9.38 11.76c4.8 0 7.43-3.6 7.87-8.08h5.28c-.43 7.4-5.66 12.5-13.14 12.5-9.25 0-14.8-7.35-14.8-16.17s5.53-16.17 14.8-16.17c7 0 12.45 3.9 13.1 10.55h-5.4zm23.48 13.53c0 3.1-3.37 4.24-5.53 4.24-1.73 0-4.54-.65-4.54-2.85 0-2.6 1.9-3.37 4-3.72s4.54-.35 6.05-1.34v3.68zm4.93-9c0-4.7-4.58-6.5-9-6.5-4.93 0-9.82 1.7-10.16 7.44h4.93c.22-2.42 2.17-3.55 4.93-3.55 2 0 4.63.48 4.63 3 0 2.9-3.16 2.5-6.7 3.16-4.15.48-8.6 1.38-8.6 7 0 4.37 3.63 6.53 7.65 6.53a11.47 11.47 0 0 0 7.74-2.72c.4 2 1.82 2.72 3.8 2.72a12.37 12.37 0 0 0 3.11-.56v-3.37a7.13 7.13 0 0 1-1.21.08c-.9 0-1.17-.48-1.17-1.7v-11.5zm5.32-5.83h4.67v3.3l.1.1a8 8 0 0 1 7-4c4.85 0 7.9 2.6 7.9 7.6v15.36h-4.93V60.8c-.08-3.5-1.47-5-4.37-5-3.3 0-5.4 2.6-5.4 5.88v13.17h-4.93zm38.6 14.83c0 3.1-3.37 4.24-5.53 4.24-1.73 0-4.54-.65-4.54-2.85 0-2.6 1.9-3.37 4-3.72s4.54-.35 6.05-1.34v3.68zm4.93-9c0-4.7-4.58-6.5-8.95-6.5-4.93 0-9.82 1.7-10.16 7.44h4.93c.22-2.42 2.16-3.55 4.93-3.55 2 0 4.62.48 4.62 3 0 2.9-3.16 2.5-6.7 3.16-4.15.48-8.6 1.38-8.6 7 0 4.37 3.64 6.53 7.65 6.53a11.47 11.47 0 0 0 7.74-2.72c.4 2 1.82 2.72 3.8 2.72a12.35 12.35 0 0 0 3.11-.56v-3.37a7.11 7.11 0 0 1-1.21.08c-.9 0-1.17-.48-1.17-1.7v-11.5zm9.16 5.6c0-4 1.64-8.13 6.27-8.13 3.8 0 6.18 2.94 6.18 7.87 0 3.9-1.86 7.9-6.27 7.9s-6.18-3.8-6.18-7.65zM189.5 44h-4.93v11.4h-.1c-1.5-2.46-4.62-3.5-7.43-3.5-4.9 0-9.7 3.55-9.7 11.63 0 6.7 3.42 11.93 10.46 11.93 2.8 0 5.62-1.08 6.92-3.63h.1v3h4.67V44zm19.15 23.32c0 3.1-3.37 4.24-5.53 4.24-1.73 0-4.54-.65-4.54-2.85 0-2.6 1.9-3.37 4-3.72s4.54-.35 6.05-1.34v3.68zm4.93-9c0-4.7-4.58-6.5-8.95-6.5-4.93 0-9.82 1.7-10.16 7.44h4.93c.22-2.42 2.16-3.55 4.93-3.55 2 0 4.62.48 4.62 3 0 2.9-3.16 2.5-6.7 3.16-4.15.48-8.6 1.38-8.6 7 0 4.37 3.64 6.53 7.65 6.53a11.47 11.47 0 0 0 7.7-2.68c.4 2 1.82 2.72 3.8 2.72a12.35 12.35 0 0 0 3.11-.56v-3.4a7.11 7.11 0 0 1-1.21.08c-.9 0-1.17-.48-1.17-1.7v-11.5z" fill="#fff"/></svg>